# xmcd
#
# Track frame offsets: 
#        150
#        10409
#        20737
#        28629
#        38347
#        47450
#        55040
#        63536
#        75117
#        84948
#        94059
#        104384
#        116574
#        124690
#        134291
#        142640
#        155235
#        163278
#        174812
#        185433
#        199398
#        208209
#        217013
#        225499
#
# Disc length: 3112 seconds
#
# Revision: 0
# Processed by: cddbd v1.5.2PL0 Copyright (c) Steve Scherf et al.
# Submitted via: ExactAudioCopy v0.99pb5
#
DISCID=3c0c2618
DTITLE=김용임 - 옛날노래(cd3)
DYEAR=2016
DGENRE=Blues
TTITLE0=울리는 경부선
TTITLE1=무정열차
TTITLE2=북극 오천키로
TTITLE3=코스모스 탄식
TTITLE4=이별의 부산정거장
TTITLE5=국세어라 금순아
TTITLE6=경상도 아가씨
TTITLE7=낭랑 18세
TTITLE8=무너진 사랑탑
TTITLE9=향기품은 군사우편
TTITLE10=아리랑 낭낭
TTITLE11=이별의 인천항
TTITLE12=꽃마차
TTITLE13=대지의 항구
TTITLE14=청산유수
TTITLE15=하늘의 황금마차
TTITLE16=마상일기
TTITLE17=청춘의 꿈
TTITLE18=홍콩아가씨
TTITLE19=아메리카 차이나타운
TTITLE20=샌프란시스코
TTITLE21=바다의 교향시
TTITLE22=아리조나 카우보이
TTITLE23=푸른 날개
EXTD=
EXTT0=
EXTT1=
EXTT2=
EXTT3=
EXTT4=
EXTT5=
EXTT6=
EXTT7=
EXTT8=
EXTT9=
EXTT10=
EXTT11=
EXTT12=
EXTT13=
EXTT14=
EXTT15=
EXTT16=
EXTT17=
EXTT18=
EXTT19=
EXTT20=
EXTT21=
EXTT22=
EXTT23=
PLAYORDER=
